<?xml version="1.0" encoding="UTF-8"?>
<svg width="42px" height="42px" viewBox="0 0 42 42" version="1.1" xmlns="http://www.w3.org/2000/svg" xmlns:xlink="http://www.w3.org/1999/xlink">
    <!-- Generator: Sketch 40.3 (33839) - http://www.bohemiancoding.com/sketch -->
    <title>settings ico</title>
    <desc>Created with Sketch.</desc>
    <defs>
        <path d="M36.7177132,23.2160804 C36.7177132,22.5829146 36.9319452,21.9497487 36.9319452,21.1055276 C36.9319452,20.2613065 36.9319452,19.6281407 36.7177132,18.9949749 L41.2165849,15.4070352 C41.6450488,14.9849246 41.6450488,14.5628141 41.4308168,14.1407035 L37.1461772,6.75376884 C36.9319452,6.54271357 36.5034813,6.33165829 35.8607853,6.54271357 L30.5049857,8.65326633 C29.4338258,7.80904523 28.1484339,7.1758794 26.863042,6.54271357 L26.0061141,1.05527638 C26.2203461,0.422110553 25.5776501,0 25.1491862,0 L16.5799069,0 C16.1514429,0 15.508747,0.422110553 15.508747,0.844221106 L14.651819,6.54271357 C13.3664272,6.96482412 12.2952672,7.80904523 11.0098753,8.65326633 L5.86830777,6.54271357 C5.22561182,6.33165829 4.79714786,6.54271357 4.36868389,6.96482412 L0.0840442447,14.3517588 C-0.130187738,14.5628141 0.0840442447,15.1959799 0.51250821,15.6180905 L5.01137984,18.9949749 C5.01137984,19.6281407 4.79714786,20.2613065 4.79714786,21.1055276 C4.79714786,21.9497487 4.79714786,22.5829146 5.01137984,23.2160804 L0.51250821,26.8040201 C0.0840442447,27.2261307 0.0840442447,27.6482412 0.298276227,28.0703518 L4.58291588,35.4572864 C4.79714786,35.6683417 5.22561182,35.879397 5.86830777,35.6683417 L11.2241073,33.5577889 C12.2952672,34.4020101 13.5806591,35.0351759 14.866051,35.6683417 L15.722979,41.1557789 C15.722979,41.5778894 16.1514429,42 16.7941389,42 L25.3634182,42 C25.7918821,42 26.4345781,41.5778894 26.4345781,41.1557789 L27.291506,35.6683417 C28.5768979,35.0351759 29.8622898,34.4020101 30.9334497,33.5577889 L36.2892493,35.6683417 C36.7177132,35.879397 37.3604092,35.6683417 37.5746412,35.2462312 L41.8592808,27.8592965 C42.0735128,27.4371859 42.0735128,26.8040201 41.6450488,26.5929648 L36.7177132,23.2160804 L36.7177132,23.2160804 Z" id="path-1"></path>
        <mask id="mask-2" maskContentUnits="userSpaceOnUse" maskUnits="objectBoundingBox" x="0" y="0" width="42" height="42" fill="white">
            <use xlink:href="#path-1"></use>
        </mask>
        <circle id="path-3" cx="21" cy="21" r="8"></circle>
        <mask id="mask-4" maskContentUnits="userSpaceOnUse" maskUnits="objectBoundingBox" x="0" y="0" width="16" height="16" fill="white">
            <use xlink:href="#path-3"></use>
        </mask>
    </defs>
    <g id="Symbols" stroke="none" stroke-width="1" fill="none" fill-rule="evenodd">
        <g id="Header" transform="translate(-1724.000000, -24.000000)">
            <g id="settings-ico" transform="translate(1720.000000, 20.000000)">
                <g id="group" transform="translate(4.000000, 4.000000)" stroke="#FFFFFF" stroke-width="4">
                    <use id="shape" mask="url(#mask-2)" xlink:href="#path-1"></use>
                    <use id="shape" mask="url(#mask-4)" xlink:href="#path-3"></use>
                </g>
                <rect id="bounds" x="0" y="0" width="50" height="49.3055556"></rect>
            </g>
        </g>
    </g>
</svg>