<?xml version="1.0" encoding="UTF-8" standalone="no"?>
<svg width="34px" height="32px" viewBox="0 0 34 32" version="1.1" xmlns="http://www.w3.org/2000/svg" xmlns:xlink="http://www.w3.org/1999/xlink" xmlns:sketch="http://www.bohemiancoding.com/sketch/ns">
    <!-- Generator: Sketch 3.3.2 (12043) - http://www.bohemiancoding.com/sketch -->
    <title>shape</title>
    <desc>Created with Sketch.</desc>
    <defs></defs>
    <g id="Page-1" stroke="none" stroke-width="1" fill="none" fill-rule="evenodd" sketch:type="MSPage">
        <g id="name" sketch:type="MSLayerGroup" transform="translate(1.000000, 1.000000)" stroke="#000000" stroke-width="2">
            <path d="M15.9974372,17.3527756 C10.5983022,17.3527756 0,19.9803408 0,25.4375915 L0,29.4799995 L31.9948744,29.4799995 L31.9948744,25.4375915 C31.9948744,19.9803408 21.3965723,17.3527756 15.9974372,17.3527756 L15.9974372,17.3527756 L15.9974372,17.3527756 Z M15.9974372,14.1977255 C19.9568029,14.1977255 23.1962839,11.0032373 23.1962839,7.09886274 C23.1962839,3.19448824 19.9568029,8.8817842e-16 15.9974372,8.8817842e-16 C12.0380715,8.8817842e-16 8.79859045,3.19448824 8.79859045,7.09886274 C8.79859045,11.0032373 12.0380715,14.1977255 15.9974372,14.1977255 L15.9974372,14.1977255 L15.9974372,14.1977255 Z" id="shape" sketch:type="MSShapeGroup"></path>
        </g>
    </g>
</svg>