<?xml version="1.0" encoding="UTF-8" standalone="no"?>
<svg
   xmlns:sketch="http://www.bohemiancoding.com/sketch/ns"
   xmlns:dc="http://purl.org/dc/elements/1.1/"
   xmlns:cc="http://creativecommons.org/ns#"
   xmlns:rdf="http://www.w3.org/1999/02/22-rdf-syntax-ns#"
   xmlns:svg="http://www.w3.org/2000/svg"
   xmlns="http://www.w3.org/2000/svg"
   xmlns:sodipodi="http://sodipodi.sourceforge.net/DTD/sodipodi-0.dtd"
   xmlns:inkscape="http://www.inkscape.org/namespaces/inkscape"
   width="32"
   height="32"
   viewBox="0 0 32 32"
   version="1.1"
   id="svg2"
   inkscape:version="0.91 r13725"
   sodipodi:docname="settings.svg">
  <metadata
     id="metadata17">
    <rdf:RDF>
      <cc:Work
         rdf:about="">
        <dc:format>image/svg+xml</dc:format>
        <dc:type
           rdf:resource="http://purl.org/dc/dcmitype/StillImage" />
      </cc:Work>
    </rdf:RDF>
  </metadata>
  <sodipodi:namedview
     pagecolor="#ffffff"
     bordercolor="#666666"
     borderopacity="1"
     objecttolerance="10"
     gridtolerance="10"
     guidetolerance="10"
     inkscape:pageopacity="0"
     inkscape:pageshadow="2"
     inkscape:window-width="1013"
     inkscape:window-height="721"
     id="namedview15"
     showgrid="false"
     inkscape:zoom="6.9411765"
     inkscape:cx="14.478814"
     inkscape:cy="17"
     inkscape:window-x="0"
     inkscape:window-y="0"
     inkscape:window-maximized="0"
     inkscape:current-layer="svg2" />
  <!-- Generator: Sketch 3.3.2 (12043) - http://www.bohemiancoding.com/sketch -->
  <title
     id="title4">settings</title>
  <desc
     id="desc6">Created with Sketch.</desc>
  <defs
     id="defs8" />
  <g
     id="Page-1"
     sketch:type="MSPage"
     transform="matrix(0.82352941,0,0,0.82352941,1.3872465,2.0000001)"
     style="fill:none;fill-rule:evenodd;stroke:none;stroke-width:1">
    <g
       id="settings"
       sketch:type="MSLayerGroup"
       transform="translate(1,1)"
       style="stroke:#000000;stroke-width:2">
      <path
         d="m 28.068996,17.688442 c 0,-0.482412 0.159428,-0.964824 0.159428,-1.60804 0,-0.643216 0,-1.125628 -0.159428,-1.60804 l 3.347997,-2.733668 c 0.318857,-0.321609 0.318857,-0.643217 0.159429,-0.964825 L 28.387853,5.1457286 C 28.228424,4.9849246 27.909568,4.8241206 27.431282,4.9849246 L 23.445571,6.5929648 C 22.648429,5.9497488 21.691858,5.4673367 20.735287,4.9849246 L 20.097573,0.8040201 C 20.257002,0.32160804 19.778716,0 19.459859,0 L 13.082721,0 C 12.763865,0 12.285579,0.32160804 12.285579,0.64321608 L 11.647865,4.9849246 C 10.691295,5.3065327 9.8941523,5.9497488 8.9375816,6.5929648 L 5.1112988,4.9849246 c -0.4782854,-0.160804 -0.7971423,0 -1.1159992,0.3216081 l -3.188569,5.6281403 c -0.15942845,0.160804 0,0.643216 0.3188569,0.964825 l 3.3479975,2.572864 c 0,0.482412 -0.1594285,0.964824 -0.1594285,1.60804 0,0.643216 0,1.125628 0.1594285,1.60804 l -3.3479975,2.733669 c -0.3188569,0.321608 -0.3188569,0.643216 -0.15942845,0.964824 l 3.18856905,5.62814 c 0.1594284,0.160804 0.4782853,0.321608 0.9565707,0.160804 l 3.9857113,-1.60804 c 0.7971422,0.643216 1.7537129,1.125628 2.7102839,1.60804 l 0.637714,4.180905 C 12.445008,31.678392 12.763865,32 13.24215,32 l 6.377138,0 c 0.318857,0 0.797142,-0.321608 0.797142,-0.643216 l 0.637714,-4.180905 c 0.956571,-0.482412 1.913141,-0.964824 2.710284,-1.60804 l 3.985711,1.60804 c 0.318857,0.160804 0.797142,0 0.956571,-0.321608 l 3.188569,-5.62814 c 0.159428,-0.321608 0.159428,-0.80402 -0.159429,-0.964825 l -3.666854,-2.572864 0,0 z"
         id="shape"
         sketch:type="MSShapeGroup"
         inkscape:connector-curvature="0" />
      <ellipse
         id="ellipse13"
         sketch:type="MSShapeGroup"
         cx="16.372093"
         cy="16"
         rx="5.9534883"
         ry="6.0952382" />
    </g>
  </g>
</svg>
